<svg width="298" height="298" viewBox="0 0 298 298" fill="none" xmlns="http://www.w3.org/2000/svg">
<circle cx="149" cy="149" r="149" fill="black"/>
<circle cx="149.5" cy="149.5" r="129" fill="black" stroke="#3d3d3d"/>
<circle cx="149.5" cy="149.5" r="110" fill="black" stroke="#3d3d3d"/>
<path d="M239.5 149.5C239.5 199.76 198.979 240.5 149 240.5C99.0208 240.5 58.5 199.76 58.5 149.5C58.5 99.2395 99.0208 58.5 149 58.5C198.979 58.5 239.5 99.2395 239.5 149.5Z" fill="black" stroke="#3d3d3d"/>
<path d="M221.5 149.5C221.5 189.82 189.037 222.5 149 222.5C108.963 222.5 76.5 189.82 76.5 149.5C76.5 109.18 108.963 76.5 149 76.5C189.037 76.5 221.5 109.18 221.5 149.5Z" fill="black" stroke="#3d3d3d"/>
</svg>
